<svg width="603" height="454" viewBox="0 0 603 454" fill="none" xmlns="http://www.w3.org/2000/svg">
<rect width="603" height="454" fill="white"/>
<path d="M167.87 343.677L133.83 347.396L117.55 336.238L108.125 347.396L112.649 370.938L117.829 389.534L149.239 373.499L174.53 371.198L167.87 343.677Z" fill="#FFC3A1"/>
<path d="M340.292 304.254L258.151 302.766L158.25 345.164L171.57 374.173L261.851 348.883L401.712 389.05L382.472 293.84L340.292 304.254Z" fill="#312E41"/>
<path d="M114.99 346.388L131.317 345.111L110.55 301.015C110.55 301.015 100.93 297.6 99.4503 308.233C97.9703 318.867 110.594 390.864 114.294 390.864C117.994 390.864 130.409 383.583 130.409 383.583L112.03 348.62L114.99 346.388L114.99 346.388L114.99 346.388Z" fill="#2F2E41"/>
<path d="M524.479 334.314C522.836 334.492 521.043 334.759 519.137 335.149C511.051 336.804 510.883 342.322 510.954 343.587L510.899 343.553C510.086 344.864 509.577 346.191 509.269 347.443L508.899 330.529C509.138 330.027 509.356 329.458 509.538 328.875C510.143 330.749 511.135 332.518 511.99 332.401C513.103 332.249 513.587 328.96 513.38 326.622C514.794 328.453 517.174 330.411 518.072 329.807C518.789 329.325 518.364 327.339 517.581 325.533C519.213 326.521 521.02 327.171 521.581 326.543C522.347 325.687 520.513 322.765 518.821 321.134C521.085 321.346 523.965 320.983 524.153 319.947C524.309 319.094 522.595 318.017 520.761 317.324C522.603 316.836 524.326 315.985 524.269 315.143C524.201 314.143 521.643 313.473 519.437 313.372C521.101 312.063 522.63 310.253 522.163 309.435C521.733 308.683 519.733 308.974 517.887 309.637C518.979 308.067 519.747 306.299 519.162 305.694C518.434 304.94 515.849 306.241 514.085 307.679C514.428 305.439 514.254 302.61 513.255 302.354C512.418 302.14 511.233 303.785 510.42 305.578C510.061 303.697 509.333 301.911 508.494 301.911C507.298 301.911 506.329 305.535 506.329 307.895C506.329 308.029 506.333 308.154 506.339 308.274C506.219 308.135 506.081 307.988 505.924 307.835C504.239 306.191 500.978 304.365 500.145 305.227C499.56 305.833 500.328 307.601 501.42 309.17C499.575 308.508 497.575 308.216 497.145 308.969C496.567 309.98 499.037 312.503 501.044 313.727C500.923 313.712 500.796 313.7 500.662 313.691C498.318 313.53 494.656 314.255 494.575 315.454C494.517 316.296 496.24 317.147 498.083 317.635C496.248 318.328 494.535 319.405 494.69 320.258C494.879 321.294 497.758 321.657 500.023 321.444C498.331 323.076 496.497 325.998 497.262 326.854C497.823 327.482 499.631 326.832 501.263 325.844C500.48 327.649 500.054 329.635 500.772 330.118C501.72 330.755 504.32 328.537 505.691 326.627C505.551 328.963 506.107 332.172 507.211 332.298C507.672 332.351 508.161 331.857 508.602 331.095L507.352 349.275C507.06 351.393 508.929 352.774 509.096 353.646L509.365 365.958C509.061 365.081 508.651 364.184 508.099 363.293L508.044 363.327C508.115 362.062 507.947 356.544 499.862 354.889C497.955 354.499 496.162 354.232 494.519 354.054C492.579 353.844 491.822 356.513 493.575 357.375C496.113 358.624 498.5 360.197 499.744 362.06C502.925 366.822 507.321 364.069 507.946 363.642C508.644 364.81 509.101 365.986 509.39 367.106L509.534 373.644C509.498 373.799 509.474 373.885 509.472 373.892L509.539 373.912L509.886 389.734L513.099 389.708L511.95 373.535C512.143 372.663 512.737 369.691 511.95 366.604L510.8 353.896C510.797 353.887 510.866 354.23 510.8 353.896L509.301 348.903C509.519 347.359 510.025 345.621 511.053 343.902C511.678 344.329 516.073 347.082 519.254 342.32C520.498 340.457 522.886 338.884 525.423 337.635C527.176 336.773 526.419 334.104 524.479 334.314H524.479H524.479ZM509.801 371.75L509.741 368.983C509.863 370.029 509.857 370.974 509.801 371.75Z" fill="black"/>
<path d="M0 389.435C0 390.198 0.60916 390.81 1.36773 390.81H601.632C602.391 390.81 603 390.198 603 389.435C603 388.673 602.391 388.061 601.632 388.061H1.36773C0.60916 388.061 0 388.673 0 389.435Z" fill="#3F3D56"/>
<path d="M398.291 205.065L406.431 177.543L430.111 176.799L439.732 211.015L398.291 205.065Z" fill="#FFC3A1"/>
<path d="M434.642 201.234L396.162 199.746L384.231 224.404L365.822 333.635L462.393 355.578C462.393 355.578 468.313 233.59 454.993 216.482C441.673 199.374 434.642 201.234 434.642 201.234H434.642V201.234Z" fill="#E7C672"/>
<path d="M316.504 113.536C314.683 104.969 308.81 98.9675 303.386 100.132C297.962 101.296 295.042 109.184 296.865 117.754C297.546 121.187 299.036 124.407 301.208 127.144L309.379 163.346L323.613 160.066L316.358 123.893C317.228 120.502 317.279 116.951 316.504 113.536V113.536Z" fill="#FFC3A1"/>
<path d="M425.813 206.26L346.858 192.68L323.096 126.491L298.504 132.997L325.811 230.973L415.036 240.491L425.813 206.26Z" fill="#E7C672"/>
<mask id="mask0_1_2" style="mask-type:alpha" maskUnits="userSpaceOnUse" x="369" y="285" width="18" height="18">
<path d="M377.075 287.122C376.192 281.356 365.032 288.935 371.626 294.706C368.616 298.381 372.81 305.641 378.586 301.073C382.042 306.654 391.072 296.123 384.527 292.622C388.809 288.323 379.223 282.106 377.075 287.122Z" fill="#D9D9D9"/>
</mask>
<g mask="url(#mask0_1_2)">
<path d="M382.72 278.205L363.958 289.841L375.428 308.366L394.191 296.73L382.72 278.205Z" fill="#FFBA43"/>
<path d="M376.872 288.266C376.086 283.402 366.849 289.688 372.395 294.607C369.919 297.675 373.939 303.541 378.714 299.743C381.644 304.474 389.079 295.683 383.592 292.678C387.125 289.094 378.619 284.061 376.872 288.266Z" fill="#FFD387"/>
</g>
<mask id="mask1_1_2" style="mask-type:alpha" maskUnits="userSpaceOnUse" x="281" y="170" width="35" height="34">
<path d="M286.075 186.259C276.277 193.503 288.512 203.6 294.065 198.589C303.624 207.769 314.013 202.154 307.841 192.79C317.92 195.866 317.276 179.324 307.362 181.251C311.48 169.013 290.444 165.79 287.771 176.799C282.287 172.45 276.706 186.259 286.075 186.259Z" fill="#D9D9D9"/>
</mask>
<g mask="url(#mask1_1_2)">
<path d="M264.583 197.019L280.84 156.59L324.38 174.126L308.123 214.556L264.583 197.019Z" fill="#FFBA43"/>
<path d="M287.654 185.984C279.712 192.429 290.659 199.83 293.986 196.898C301.398 204.628 310.407 197.682 305.301 191.355C315.559 194.147 315.559 182.976 305.299 181.8C309.548 171.591 290.55 168.777 289.371 178.25C285.43 175.243 278.991 182.919 287.654 185.984Z" fill="#FFD387"/>
</g>
<mask id="mask2_1_2" style="mask-type:alpha" maskUnits="userSpaceOnUse" x="352" y="177" width="42" height="30">
<path d="M375.224 202.699C383.136 211.326 391.833 202.278 389.594 198.153C399.464 191.654 389.705 181.621 378.818 185.163C376.521 176.815 366.953 175.025 363.766 183.378C350.924 182.672 348.029 196.506 362.406 199.434C362.204 204.96 370.917 208.99 375.224 202.699Z" fill="#D9D9D9"/>
</mask>
<g mask="url(#mask2_1_2)">
<path d="M338.963 202.145L392.636 222.662L405.699 188.434L352.026 167.918L338.963 202.145Z" fill="#FFBA43"/>
<path d="M375.075 200.992C381.235 207.795 388.083 200.589 386.346 197.33C394.103 192.139 386.502 184.229 377.962 187.082C376.198 180.476 368.713 179.098 366.182 185.73C356.129 185.224 353.804 196.198 365.051 198.458C364.87 202.837 371.675 205.995 375.075 200.992Z" fill="#FFD387"/>
</g>
<mask id="mask3_1_2" style="mask-type:alpha" maskUnits="userSpaceOnUse" x="302" y="149" width="32" height="31">
<path d="M322.707 155.227C326.527 146.975 303.989 147.834 308.282 160.724C300.769 163.087 300.34 175.976 312.575 174.687C312.575 184.784 334.684 178.339 328.459 168.457C338.333 166.309 330.176 150.412 322.707 155.227Z" fill="#D9D9D9"/>
</mask>
<g mask="url(#mask3_1_2)">
<path d="M338.584 148.148H301.663V181.661H338.584V148.148Z" fill="#FFBA43"/>
<path d="M321.411 156.559C324.575 149.564 305.909 150.292 309.464 161.218C303.242 163.221 303.793 174.146 313.926 173.054C313.926 181.612 332.237 176.149 327.082 167.773C335.259 165.952 327.597 152.477 321.411 156.559Z" fill="#FFD387"/>
</g>
<mask id="mask4_1_2" style="mask-type:alpha" maskUnits="userSpaceOnUse" x="321" y="149" width="35" height="28">
<path d="M343.55 154.763C346.526 146.215 322.947 147.934 327.851 158.675C319.05 156.741 319.265 175.646 331.975 170.979C330.641 182.305 358.761 175.646 350.12 165.787C361.337 167.053 352.107 147.289 343.55 154.763Z" fill="#D9D9D9"/>
</mask>
<g mask="url(#mask4_1_2)">
<path d="M361.686 148.864H319.511V176.79H361.686V148.864Z" fill="#FFBA43"/>
<path d="M342.258 155.371C345.872 149.543 324.549 150.15 328.611 159.254C321.503 160.923 322.133 170.027 333.708 169.116C333.708 176.248 354.625 171.696 348.736 164.716C358.077 163.199 349.324 151.971 342.258 155.371Z" fill="#FFD387"/>
</g>
<mask id="mask5_1_2" style="mask-type:alpha" maskUnits="userSpaceOnUse" x="342" y="155" width="28" height="26">
<path d="M360.376 160.349C363.759 153.472 343.795 154.188 347.598 164.929C340.943 166.898 340.563 177.638 351.401 176.564C351.401 184.977 370.985 179.607 365.471 171.373C374.217 169.583 366.992 156.336 360.376 160.349Z" fill="#D9D9D9"/>
</mask>
<g mask="url(#mask5_1_2)">
<path d="M374.439 154.45H341.736V182.375H374.439V154.45Z" fill="#FFBA43"/>
<path d="M359.228 161.458C362.03 155.629 345.496 156.236 348.646 165.34C343.134 167.009 343.623 176.113 352.598 175.203C352.598 182.334 368.817 177.782 364.25 170.803C371.494 169.285 364.707 158.057 359.228 161.458Z" fill="#FFD387"/>
</g>
<mask id="mask6_1_2" style="mask-type:alpha" maskUnits="userSpaceOnUse" x="323" y="162" width="27" height="26">
<path d="M340.628 167.223C344.011 160.346 324.047 161.063 327.85 171.803C321.195 173.772 320.815 184.512 331.653 183.438C331.653 191.852 351.236 186.482 345.722 178.247C354.469 176.457 347.244 163.211 340.628 167.223Z" fill="#D9D9D9"/>
</mask>
<g mask="url(#mask6_1_2)">
<path d="M354.691 161.324H321.988V189.249H354.691V161.324Z" fill="#FFBA43"/>
<path d="M339.48 168.332C342.282 162.504 325.748 163.111 328.898 172.215C323.386 173.884 323.875 182.988 332.85 182.077C332.85 189.209 349.069 184.657 344.502 177.677C351.746 176.16 344.959 164.931 339.48 168.332Z" fill="#FFD387"/>
</g>
<mask id="mask7_1_2" style="mask-type:alpha" maskUnits="userSpaceOnUse" x="342" y="164" width="27" height="26">
<path d="M359.517 169.371C362.901 162.495 342.937 163.211 346.74 173.951C340.085 175.92 339.704 186.661 350.542 185.587C350.542 194 370.126 188.63 364.612 180.395C373.358 178.605 366.133 165.359 359.517 169.371Z" fill="#D9D9D9"/>
</mask>
<g mask="url(#mask7_1_2)">
<path d="M373.58 163.472H340.877V191.398H373.58V163.472Z" fill="#FFBA43"/>
<path d="M358.369 170.481C361.171 164.652 344.638 165.259 347.787 174.363C342.276 176.032 342.764 185.136 351.74 184.226C351.74 191.357 367.958 186.805 363.392 179.825C370.636 178.308 363.848 167.08 358.369 170.481Z" fill="#FFD387"/>
</g>
<mask id="mask8_1_2" style="mask-type:alpha" maskUnits="userSpaceOnUse" x="286" y="157" width="32" height="32">
<path d="M312.134 167.149C320.196 162.112 300.643 150.063 296.721 163.756C288.987 161.554 281.073 172.566 292.17 178.389C286.255 187.206 308.717 194.133 309.245 181.969C318.849 185.7 321.268 167.185 312.134 167.149Z" fill="#D9D9D9"/>
</mask>
<g mask="url(#mask8_1_2)">
<path d="M329.699 169.983L298.494 149.016L278.862 178.282L310.067 199.249L329.699 169.983Z" fill="#FFBA43"/>
<path d="M310.258 167.576C317.03 163.264 300.826 153.299 297.431 164.859C290.998 163.075 285.064 172.929 294.269 177.73C289.255 185.204 307.932 190.832 308.481 180.589C316.46 183.643 317.877 167.524 310.258 167.576Z" fill="#FFD387"/>
</g>
<mask id="mask9_1_2" style="mask-type:alpha" maskUnits="userSpaceOnUse" x="335" y="177" width="27" height="26">
<path d="M352.648 181.831C356.032 174.955 336.068 175.671 339.871 186.411C333.216 188.38 332.836 199.12 343.673 198.046C343.673 206.46 363.257 201.089 357.743 192.855C366.489 191.065 359.264 177.819 352.648 181.831Z" fill="#D9D9D9"/>
</mask>
<g mask="url(#mask9_1_2)">
<path d="M366.711 175.932H334.008V203.857H366.711V175.932Z" fill="#FFBA43"/>
<path d="M351.501 182.94C354.303 177.112 337.769 177.719 340.918 186.823C335.407 188.492 335.895 197.596 344.871 196.685C344.871 203.817 361.089 199.265 356.523 192.285C363.767 190.768 356.979 179.539 351.501 182.94Z" fill="#FFD387"/>
</g>
<mask id="mask10_1_2" style="mask-type:alpha" maskUnits="userSpaceOnUse" x="362" y="165" width="26" height="25">
<path d="M372.791 167.883C371.183 159.715 355.857 170.998 365.547 178.921C361.515 184.284 367.901 194.433 375.794 187.673C381.032 195.465 393.16 180.074 383.678 175.382C389.474 169.072 375.52 160.648 372.791 167.883Z" fill="#D9D9D9"/>
</mask>
<g mask="url(#mask10_1_2)">
<path d="M380.229 154.94L354.392 172.336L371.776 198.196L397.612 180.8L380.229 154.94Z" fill="#FFBA43"/>
<path d="M372.574 169.521C371.16 162.633 358.475 171.99 366.631 178.745C363.315 183.222 369.369 191.393 375.893 185.776C380.332 192.38 390.312 179.537 382.359 175.503C387.138 170.245 374.786 163.457 372.574 169.521Z" fill="#FFD387"/>
</g>
<mask id="mask11_1_2" style="mask-type:alpha" maskUnits="userSpaceOnUse" x="307" y="171" width="39" height="28">
<path d="M320.956 177.209C310.868 172.053 306.145 183.439 309.58 186.446C302.925 195.898 315.161 201.699 323.747 194.61C328.684 201.484 337.914 199.765 337.914 190.958C349.72 187.091 347.573 173.342 333.621 175.705C331.904 170.549 322.673 169.905 320.956 177.209Z" fill="#D9D9D9"/>
</mask>
<g mask="url(#mask11_1_2)">
<path d="M353.798 164.964H298.418V201.054H353.798V164.964Z" fill="#FFBA43"/>
<path d="M321.677 178.727C313.793 174.634 310.103 183.674 312.787 186.061C307.586 193.566 317.148 198.171 323.858 192.543C327.717 198.001 334.93 196.637 334.93 189.643C344.156 186.573 342.479 175.657 331.575 177.533C330.233 173.44 323.02 172.928 321.677 178.727Z" fill="#FFD387"/>
</g>
<mask id="mask12_1_2" style="mask-type:alpha" maskUnits="userSpaceOnUse" x="390" y="290" width="13" height="13">
<path d="M394.049 292.864C391.86 289.938 387.862 298.178 393.24 299.07C392.641 302.209 397.118 304.794 398.997 300.166C402.567 302.07 404.508 292.931 399.825 293.298C400.95 289.354 393.772 289.279 394.049 292.864Z" fill="#D9D9D9"/>
</mask>
<g mask="url(#mask12_1_2)">
<path d="M394.576 285.839L387.53 299.07L399.381 305.392L406.427 292.16L394.576 285.839Z" fill="#FFBA43"/>
<path d="M394.273 293.579C392.403 291.126 389.098 297.953 393.64 298.74C393.161 301.347 397.13 303.211 398.677 299.373C401.704 300.987 403.267 293.395 399.32 293.662C400.237 290.388 394.01 290.593 394.273 293.579Z" fill="#FFD387"/>
</g>
<mask id="mask13_1_2" style="mask-type:alpha" maskUnits="userSpaceOnUse" x="279" y="191" width="115" height="117">
<path d="M392.693 195.051C350.213 191.15 325.144 190.819 280 195.051C285.967 247.437 290.609 271.148 299.78 302.846C300.274 304.556 301.781 305.781 303.554 305.918C329.119 307.896 343.694 307.874 368.835 306.023C370.651 305.889 372.188 304.616 372.656 302.855C381.146 270.916 387.356 242.881 392.693 195.051Z" fill="#D9D9D9" stroke="black"/>
</mask>
<g mask="url(#mask13_1_2)">
<path d="M399.562 206.007H273.775V313.419H399.562V206.007Z" fill="#00C4FF"/>
<path d="M355.129 308.048C362.352 272.099 365.916 250.772 369.51 209.874L381.531 210.948C376.893 253.427 373.405 275.072 366.72 308.048H355.129Z" fill="#00A3F5"/>
<path d="M337.527 308.048C342.703 272.695 344.073 250.489 345.04 208.585H356.631C356.128 248.651 354.573 270.4 349.762 308.048H337.527Z" fill="#00A3F5"/>
<path d="M321.857 308.048C319.808 287.115 319.011 283.716 314.13 208.585H326.15C328.779 261.646 330.419 280.71 333.449 308.048H321.857Z" fill="#00A3F5"/>
<path d="M304.041 308.048C299.172 280.693 296.247 262.989 289.23 209.444L301.036 207.296C306.21 252.688 309.557 273.715 315.847 308.048H304.041Z" fill="#00A3F5"/>
<path d="M393.981 192.258C356.98 189.487 334.06 186.785 275.922 190.11L281.073 212.237C333.171 206.848 354.899 208.651 391.834 213.526L393.981 192.258Z" fill="#006AE4"/>
<path d="M378.955 287.64C389.624 287.64 398.274 279.08 398.274 268.521C398.274 257.961 389.624 249.401 378.955 249.401C368.286 249.401 359.636 257.961 359.636 268.521C359.636 279.08 368.286 287.64 378.955 287.64Z" fill="#FF6664"/>
<path d="M293.523 287.64C304.193 287.64 312.842 279.08 312.842 268.521C312.842 257.961 304.193 249.401 293.523 249.401C282.854 249.401 274.204 257.961 274.204 268.521C274.204 279.08 282.854 287.64 293.523 287.64Z" fill="#FF6664"/>
<path d="M327.009 244.031C327.009 247.709 325.567 250.69 323.789 250.69C322.011 250.69 320.569 247.709 320.569 244.031C320.569 240.353 322.011 237.371 323.789 237.371C325.567 237.371 327.009 240.353 327.009 244.031Z" fill="#350E58"/>
<path d="M351.05 244.031C351.05 247.709 349.609 250.69 347.83 250.69C346.052 250.69 344.611 247.709 344.611 244.031C344.611 240.353 346.052 237.371 347.83 237.371C349.609 237.371 351.05 240.353 351.05 244.031Z" fill="#350E58"/>
<path d="M330.443 228.778C323.766 225.865 318.48 229.47 317.152 235.873C321.6 231.623 323.693 229.69 330.443 228.778Z" fill="#350E58"/>
<path d="M342.035 229.758C348.712 226.844 353.998 230.449 355.326 236.852C350.878 232.602 348.786 230.669 342.035 229.758Z" fill="#350E58"/>
<mask id="mask14_1_2" style="mask-type:alpha" maskUnits="userSpaceOnUse" x="314" y="251" width="45" height="26">
<path d="M335.596 276.684C321.286 277.079 313.093 260.893 314.559 253.053C331.517 250.261 343.323 250.69 358.992 254.772C357.419 268.725 348.694 276.322 335.596 276.684Z" fill="#1E1E1E"/>
</mask>
<g mask="url(#mask14_1_2)">
<path d="M364.359 248.972H307.261V284.633H364.359V248.972Z" fill="#350E58"/>
<path d="M334.093 287.64C342.51 287.64 349.333 281.1 349.333 273.032C349.333 264.964 342.51 258.424 334.093 258.424C325.676 258.424 318.852 264.964 318.852 273.032C318.852 281.1 325.676 287.64 334.093 287.64Z" fill="#FF6664"/>
</g>
</g>
<path d="M281.581 243.178C274.665 237.874 266.305 237.157 262.908 241.578C259.512 245.998 262.365 253.881 269.283 259.186C272.018 261.343 275.233 262.812 278.658 263.468L308.245 285.572L317.014 273.801L288.146 251.122C286.626 247.984 284.374 245.26 281.581 243.178V243.178Z" fill="#FFC3A1"/>
<path d="M424.94 242.136L355.814 283.352L294.973 248.695L280.364 269.668L364.408 326.1L438.768 275.106L424.94 242.136Z" fill="#E7C672"/>
<path d="M439.624 317.784C439.624 317.784 468.664 342.104 457.891 356.852C447.119 371.599 410.478 398.008 393.933 389.817C377.388 381.626 343.032 322.43 343.032 322.43L334.047 383.067L310.528 380.979C310.528 380.979 293.445 295.326 309.198 282.191C324.951 269.056 396.673 292.275 396.673 292.275L439.624 317.784V317.784V317.784V317.784Z" fill="#2F2E41"/>
<path d="M316.404 372.935L309.666 393.962L295.635 413.733L306.39 429.923L340.58 407.285L340.463 395.643L335.094 388.379L331.312 374.446L316.404 372.935Z" fill="#FFC3A1"/>
<path d="M305.647 421.947L297.067 407.927L267.506 446.621C267.506 446.621 268.872 456.784 278.961 453.256C289.049 449.728 351.605 417.485 349.917 414.176C348.229 410.866 341.296 393.041 341.296 393.041L308.973 423.576L305.647 421.947L305.647 421.947V421.947Z" fill="#2F2E41"/>
<path d="M415.263 185.782C432.631 185.782 446.711 171.629 446.711 154.171C446.711 136.713 432.631 122.561 415.263 122.561C397.895 122.561 383.815 136.713 383.815 154.171C383.815 171.629 397.895 185.782 415.263 185.782Z" fill="#FFC3A1"/>
<path d="M417.773 111.673C416.863 112.207 415.644 111.399 415.352 110.381C415.06 109.364 415.4 108.283 415.737 107.28C416.303 105.596 416.868 103.912 417.434 102.228C418.637 98.6454 419.915 94.9375 422.521 92.2106C426.455 88.0948 432.706 87.0477 438.334 87.8063C445.561 88.7804 452.692 92.714 456.052 99.2188C459.413 105.723 457.982 114.8 451.91 118.858C460.564 128.828 463.58 139.94 463.104 153.162C462.628 166.385 448.292 178.554 438.944 187.869C436.856 186.597 434.958 180.635 436.106 178.47C437.254 176.304 435.609 173.795 437.031 171.8C438.453 169.805 439.642 172.982 438.205 170.998C437.298 169.746 440.838 166.867 439.49 166.118C432.969 162.495 430.8 154.324 426.704 148.067C421.763 140.52 413.308 135.41 404.36 134.562C399.431 134.095 394.225 134.941 390.184 137.817C386.144 140.693 383.529 145.833 384.465 150.72C382.039 148.244 380.831 144.615 381.287 141.169C381.742 137.724 383.851 134.538 386.837 132.784C385.022 126.75 386.577 119.808 390.79 115.139C395.004 110.469 412.097 111.264 418.248 112.493L417.773 111.673H417.773V111.673Z" fill="#923824"/>
<path d="M418.728 134.745C426.876 135.629 432.758 142.723 437.726 149.274C440.589 153.05 443.588 157.22 443.516 161.968C443.444 166.767 440.251 170.884 438.725 175.432C436.232 182.867 438.662 191.713 444.599 196.807C438.733 197.926 432.391 193.505 431.379 187.59C430.2 180.705 435.392 174.06 434.777 167.1C434.236 160.969 429.429 156.251 425.343 151.667C421.256 147.083 417.418 141 419.298 135.142L418.728 134.745H418.728V134.745Z" fill="#923824"/>
<path d="M197.987 28.1624C197.928 28.2241 197.874 28.289 197.816 28.3512C188.777 18.625 174.22 18.5394 165.085 28.1587C155.916 37.816 155.607 53.6696 164.389 63.7394L164.383 63.7454L164.602 63.9896L196.944 100.099L230.47 64.7914L230.377 64.6873C230.433 64.6291 230.492 64.5752 230.547 64.5162C239.805 54.7662 240.021 38.7243 231.03 28.6854C222.038 18.6466 207.244 18.4125 197.987 28.1624H197.987V28.1624Z" fill="#9198E5"/>
<path d="M115.646 113.191C115.538 113.305 115.439 113.425 115.332 113.539C98.6846 95.6257 71.8738 95.4681 55.048 113.185C38.1624 130.971 37.5917 160.17 53.7674 178.716L53.7569 178.727L54.1596 179.177L113.726 245.682L175.472 180.653L175.301 180.462C175.404 180.355 175.512 180.255 175.615 180.146C192.666 162.189 193.064 132.644 176.504 114.155C159.944 95.6655 132.697 95.2343 115.646 113.191L115.646 113.191Z" fill="#9198E5"/>
</svg>
