<svg width="389" height="398" viewBox="0 0 389 398" fill="none" xmlns="http://www.w3.org/2000/svg">
<g id="popcorn">
<g id="popcorncup">
<g id="popcorn_2">
<g id="Pop1">
<mask id="mask0_1_196" style="mask-type:alpha" maskUnits="userSpaceOnUse" x="285" y="248" width="83" height="69">
<path id="Vector 7" d="M315.022 262.559C297.218 248.608 274.636 283.49 292.211 286.037C278.135 311.158 315.022 324.237 322.178 307.732C322.178 328.552 362.396 309.377 352.146 298.027C382.982 294.037 362.938 247.537 341.811 258.563C346.144 244.181 309.848 244.661 315.022 262.559Z" fill="#D9D9D9"/>
</mask>
<g mask="url(#mask0_1_196)">
<g id="Group 3">
<rect id="Rectangle 3" x="268.6" y="228.946" width="117.145" height="95.914" fill="#FFBA43"/>
<path id="Vector 8" d="M317.801 265.524C301.124 254.645 283.304 279.176 298.994 285.015C278.428 298.83 310.932 325.196 322.414 302.24C325.559 318.964 356.437 306.98 345.834 294.534C374.856 294.534 357.521 250.893 338.737 262.35C343.436 251.851 315.807 249.455 317.801 265.524Z" fill="#FFD387"/>
</g>
</g>
</g>
<g id="pop2">
<mask id="mask1_1_196" style="mask-type:alpha" maskUnits="userSpaceOnUse" x="283" y="323" width="41" height="42">
<path id="Vector 9" d="M300.66 328.459C298.603 315.04 272.608 332.678 287.966 346.112C280.956 354.664 290.725 371.562 304.18 360.929C312.23 373.919 333.264 349.409 318.017 341.261C327.993 331.254 305.663 316.785 300.66 328.459Z" fill="#D9D9D9"/>
</mask>
<g mask="url(#mask1_1_196)">
<g id="Group 4">
<rect id="Rectangle 4" x="270.105" y="334.788" width="51.4161" height="50.7239" transform="rotate(-31.7856 270.105 334.788)" fill="#FFBA43"/>
<path id="Vector 10" d="M300.188 331.123C298.356 319.802 276.84 334.432 289.759 345.881C283.991 353.022 293.354 366.674 304.478 357.835C311.302 368.846 328.622 348.386 315.841 341.391C324.07 333.05 304.256 321.334 300.188 331.123Z" fill="#FFD387"/>
</g>
</g>
</g>
<g id="Pop1_2">
<mask id="mask2_1_196" style="mask-type:alpha" maskUnits="userSpaceOnUse" x="76" y="56" width="81" height="78">
<path id="Vector 7_2" d="M88.6893 93.7026C65.8672 110.562 94.3672 134.062 107.302 122.401C129.568 143.766 153.767 130.697 139.389 108.904C162.867 116.062 161.367 77.5618 138.274 82.0455C147.867 53.5618 98.8672 46.0618 92.6403 71.6839C79.8672 61.5618 66.8672 93.7026 88.6893 93.7026Z" fill="#D9D9D9"/>
</mask>
<g mask="url(#mask2_1_196)">
<g id="Group 3_2">
<path id="Rectangle 3_2" d="M38.6276 118.747L76.4965 24.6482L177.916 65.4632L140.047 159.562L38.6276 118.747Z" fill="#FFBA43"/>
<path id="Vector 8_2" d="M92.3672 93.0618C73.8672 108.062 99.3672 125.288 107.118 118.465C124.383 136.455 145.367 120.288 133.474 105.562C157.367 112.062 157.367 86.0618 133.468 83.3234C143.367 59.5618 99.114 53.0137 96.3672 75.0618C87.1881 68.0618 72.1882 85.9273 92.3672 93.0618Z" fill="#FFD387"/>
</g>
</g>
</g>
<g id="pop6">
<mask id="mask3_1_196" style="mask-type:alpha" maskUnits="userSpaceOnUse" x="244" y="74" width="96" height="67">
<path id="Vector 7_3" d="M296.349 131.967C314.778 152.046 335.037 130.986 329.82 121.386C352.811 106.259 330.079 82.9063 304.719 91.1515C299.369 71.7206 277.083 67.5557 269.658 86.9976C239.746 85.3537 233.001 117.553 266.491 124.367C266.021 137.228 286.315 146.609 296.349 131.967Z" fill="#D9D9D9"/>
</mask>
<g mask="url(#mask3_1_196)">
<g id="Group 3_3">
<rect id="Rectangle 3_3" x="336.907" y="178.429" width="133.831" height="85.2768" transform="rotate(-159.096 336.907 178.429)" fill="#FFBA43"/>
<path id="Vector 8_3" d="M296.001 127.993C310.349 143.827 326.302 127.055 322.256 119.47C340.323 107.388 322.619 88.9784 302.725 95.6171C298.616 80.2425 281.182 77.0349 275.286 92.4712C251.869 91.2928 246.453 116.835 272.651 122.095C272.229 132.288 288.082 139.637 296.001 127.993Z" fill="#FFD387"/>
</g>
</g>
</g>
<g id="pop5">
<mask id="mask4_1_196" style="mask-type:alpha" maskUnits="userSpaceOnUse" x="128" y="9" width="71" height="70">
<path id="Vector 9_2" d="M174.019 21.4761C182.917 2.26896 130.417 4.26896 140.417 34.2689C122.917 39.769 121.917 69.769 150.417 66.769C150.417 90.269 201.917 75.269 187.417 52.269C210.417 47.269 191.417 10.269 174.019 21.4761Z" fill="#D9D9D9"/>
</mask>
<g mask="url(#mask4_1_196)">
<g id="Group 4_2">
<rect id="Rectangle 4_2" x="125" y="5" width="86" height="78" fill="#FFBA43"/>
<path id="Vector 10_2" d="M171 24.5752C178.369 8.29451 134.889 9.98979 143.171 35.4189C128.678 40.081 129.962 65.5101 153.565 62.9672C153.565 82.8867 196.217 70.1721 184.208 50.6765C203.257 46.4383 185.409 15.0756 171 24.5752Z" fill="#FFD387"/>
</g>
</g>
</g>
<g id="pop4">
<mask id="mask5_1_196" style="mask-type:alpha" maskUnits="userSpaceOnUse" x="171" y="7" width="79" height="65">
<path id="Vector 9_3" d="M222.569 20.396C229.5 0.499993 174.577 4.50187 186 29.5C165.5 25 166 69 195.607 58.1373C192.5 84.5 258 69 237.873 46.0548C264 49 242.5 3 222.569 20.396Z" fill="#D9D9D9"/>
</mask>
<g mask="url(#mask5_1_196)">
<g id="Group 4_3">
<rect id="Rectangle 4_3" x="166.573" y="6.66693" width="98.2405" height="64.9952" fill="#FFBA43"/>
<path id="Vector 10_3" d="M219.56 21.812C227.978 8.24577 178.309 9.65841 187.77 30.8478C171.213 34.7325 172.681 55.922 199.643 53.803C199.643 70.4014 248.366 59.8067 234.648 43.5615C256.408 40.0299 236.019 13.8963 219.56 21.812Z" fill="#FFD387"/>
</g>
</g>
</g>
<g id="pop4_2">
<mask id="mask6_1_196" style="mask-type:alpha" maskUnits="userSpaceOnUse" x="220" y="23" width="64" height="58">
<path id="Vector 9_4" d="M261.762 33.396C269.643 17.3912 223.14 19.0578 231.998 44.0559C216.497 48.6389 215.611 73.6371 240.856 71.1373C240.856 90.7192 286.473 78.2201 273.629 59.0548C294.002 54.8885 277.172 24.0574 261.762 33.396Z" fill="#D9D9D9"/>
</mask>
<g mask="url(#mask6_1_196)">
<g id="Group 4_4">
<rect id="Rectangle 4_4" x="218.343" y="19.6669" width="76.1759" height="64.9952" fill="#FFBA43"/>
<path id="Vector 10_4" d="M259.088 35.9784C265.615 22.4121 227.102 23.8248 234.438 45.0141C221.6 48.8989 222.738 70.0883 243.645 67.9694C243.645 84.5677 281.424 73.973 270.787 57.7278C287.66 54.1963 271.85 28.0626 259.088 35.9784Z" fill="#FFD387"/>
</g>
</g>
</g>
<g id="pop4_3">
<mask id="mask7_1_196" style="mask-type:alpha" maskUnits="userSpaceOnUse" x="174" y="39" width="64" height="58">
<path id="Vector 9_5" d="M215.762 49.396C223.643 33.3912 177.14 35.0578 185.998 60.0559C170.497 64.6389 169.611 89.6371 194.856 87.1373C194.856 106.719 240.473 94.2201 227.629 75.0548C248.002 70.8885 231.172 40.0574 215.762 49.396Z" fill="#D9D9D9"/>
</mask>
<g mask="url(#mask7_1_196)">
<g id="Group 4_5">
<rect id="Rectangle 4_5" x="172.343" y="35.6669" width="76.1759" height="64.9952" fill="#FFBA43"/>
<path id="Vector 10_5" d="M213.088 51.9784C219.615 38.4121 181.102 39.8248 188.438 61.0141C175.6 64.8989 176.738 86.0883 197.645 83.9694C197.645 100.568 235.424 89.973 224.787 73.7278C241.66 70.1963 225.85 44.0626 213.088 51.9784Z" fill="#FFD387"/>
</g>
</g>
</g>
<g id="pop4_4">
<mask id="mask8_1_196" style="mask-type:alpha" maskUnits="userSpaceOnUse" x="218" y="44" width="64" height="58">
<path id="Vector 9_6" d="M259.762 54.396C267.643 38.3912 221.14 40.0578 229.998 65.0559C214.497 69.6389 213.611 94.6371 238.856 92.1373C238.856 111.719 284.473 99.2201 271.629 80.0548C292.002 75.8885 275.172 45.0574 259.762 54.396Z" fill="#D9D9D9"/>
</mask>
<g mask="url(#mask8_1_196)">
<g id="Group 4_6">
<rect id="Rectangle 4_6" x="216.343" y="40.6669" width="76.1759" height="64.9952" fill="#FFBA43"/>
<path id="Vector 10_6" d="M257.088 56.9784C263.615 43.4121 225.102 44.8248 232.438 66.0141C219.6 69.8989 220.738 91.0883 241.645 88.9694C241.645 105.568 279.424 94.973 268.787 78.7278C285.66 75.1963 269.85 49.0626 257.088 56.9784Z" fill="#FFD387"/>
</g>
</g>
</g>
<g id="pop3">
<mask id="mask9_1_196" style="mask-type:alpha" maskUnits="userSpaceOnUse" x="90" y="26" width="73" height="73">
<path id="Vector 9_7" d="M149.389 49.2236C168.17 37.4995 122.624 9.45551 113.488 41.328C95.4722 36.2009 77.0387 61.8317 102.886 75.3838C89.1087 95.9058 141.431 112.03 142.66 83.7166C165.031 92.4013 170.665 49.3089 149.389 49.2236Z" fill="#D9D9D9"/>
</mask>
<g mask="url(#mask9_1_196)">
<g id="Group 4_7">
<rect id="Rectangle 4_7" x="117.617" y="7.02029" width="87.5501" height="82.0419" transform="rotate(33.8756 117.617 7.02029)" fill="#FFBA43"/>
<path id="Vector 10_7" d="M145.021 50.217C160.794 40.1809 123.05 16.9891 115.142 43.8952C100.158 39.7423 86.3355 62.6777 107.776 73.8505C96.098 91.2457 139.602 104.345 140.882 80.5054C159.467 87.613 162.768 50.0972 145.021 50.217Z" fill="#FFD387"/>
</g>
</g>
</g>
<g id="pop4_5">
<mask id="mask10_1_196" style="mask-type:alpha" maskUnits="userSpaceOnUse" x="202" y="73" width="64" height="58">
<path id="Vector 9_8" d="M243.762 83.396C251.643 67.3912 205.14 69.0578 213.998 94.0559C198.497 98.6389 197.611 123.637 222.856 121.137C222.856 140.719 268.473 128.22 255.629 109.055C276.002 104.888 259.172 74.0574 243.762 83.396Z" fill="#D9D9D9"/>
</mask>
<g mask="url(#mask10_1_196)">
<g id="Group 4_8">
<rect id="Rectangle 4_8" x="200.343" y="69.6669" width="76.1759" height="64.9952" fill="#FFBA43"/>
<path id="Vector 10_8" d="M241.088 85.9784C247.615 72.4121 209.102 73.8248 216.438 95.0141C203.6 98.8989 204.738 120.088 225.645 117.969C225.645 134.568 263.424 123.973 252.787 107.728C269.66 104.196 253.85 78.0626 241.088 85.9784Z" fill="#FFD387"/>
</g>
</g>
</g>
<g id="pop2_2">
<mask id="mask11_1_196" style="mask-type:alpha" maskUnits="userSpaceOnUse" x="266" y="44" width="59" height="59">
<path id="Vector 9_9" d="M290.68 50.9322C286.936 31.9222 251.235 58.1818 273.807 76.6233C264.416 89.1061 279.29 112.726 297.676 96.9939C309.876 115.128 338.128 79.3074 316.041 68.3859C329.541 53.6996 297.037 34.0937 290.68 50.9322Z" fill="#D9D9D9"/>
</mask>
<g mask="url(#mask11_1_196)">
<g id="Group 4_9">
<rect id="Rectangle 4_9" x="247.824" y="61.296" width="72.5336" height="72.5413" transform="rotate(-33.9308 247.824 61.296)" fill="#FFBA43"/>
<path id="Vector 10_9" d="M290.176 54.7449C286.881 38.7128 257.335 60.4908 276.331 76.214C268.609 86.6348 282.709 105.652 297.906 92.578C308.247 107.949 331.494 78.0577 312.969 68.6675C324.099 56.4294 295.328 40.6312 290.176 54.7449Z" fill="#FFD387"/>
</g>
</g>
</g>
<g id="Pop1_3">
<mask id="mask12_1_196" style="mask-type:alpha" maskUnits="userSpaceOnUse" x="139" y="60" width="89" height="63">
<path id="Vector 7_4" d="M169.94 72.638C146.44 60.638 135.44 87.138 143.44 94.138C127.94 116.138 156.44 129.638 176.44 113.138C187.94 129.138 209.44 125.138 209.44 104.638C236.94 95.638 231.94 63.638 199.44 69.138C195.44 57.138 173.94 55.638 169.94 72.638Z" fill="#D9D9D9"/>
</mask>
<g mask="url(#mask12_1_196)">
<g id="Group 3_4">
<rect id="Rectangle 3_4" x="117.44" y="44.138" width="129" height="84" fill="#FFBA43"/>
<path id="Vector 8_4" d="M171.62 76.1722C153.254 66.6445 144.658 87.6847 150.91 93.2425C138.796 110.71 161.07 121.428 176.7 108.328C185.687 121.031 202.49 117.856 202.49 101.579C223.981 94.4335 220.074 69.0264 194.674 73.3932C191.549 63.8656 174.746 62.6746 171.62 76.1722Z" fill="#FFD387"/>
</g>
</g>
</g>
</g>
<g id="cup">
<mask id="mask13_1_196" style="mask-type:alpha" maskUnits="userSpaceOnUse" x="77" y="105" width="265" height="271">
<path id="Frame" d="M341 113.5C242.049 104.421 183.655 103.651 78.5 113.5C92.3995 235.428 103.213 290.614 124.574 364.392C125.726 368.371 129.236 371.223 133.366 371.542C192.914 376.146 226.866 376.093 285.427 371.786C289.658 371.475 293.237 368.512 294.328 364.412C314.104 290.076 328.569 224.824 341 113.5Z" fill="#D9D9D9" stroke="black"/>
</mask>
<g mask="url(#mask13_1_196)">
<g id="Group 2">
<rect id="Rectangle 1" x="64" y="139" width="293" height="250" fill="#00C4FF"/>
<g id="Group 1">
<path id="Vector 2" d="M253.5 376.5C270.327 292.829 278.628 243.191 287 148L315 150.5C304.197 249.369 296.073 299.749 280.5 376.5H253.5Z" fill="#00A3F5"/>
<path id="Vector 3" d="M212.5 376.5C224.557 294.216 227.748 242.532 230 145H257C255.827 238.253 252.207 288.875 241 376.5H212.5Z" fill="#00A3F5"/>
<path id="Vector 4" d="M176 376.5C171.226 327.777 169.369 319.866 158 145H186C192.123 268.5 195.943 312.871 203 376.5H176Z" fill="#00A3F5"/>
<path id="Vector 5" d="M134.5 376.5C123.157 312.83 116.345 271.624 100 147L127.5 142C139.553 247.649 147.349 296.59 162 376.5H134.5Z" fill="#00A3F5"/>
</g>
<path id="Vector 1" d="M344 107C257.812 100.551 204.425 94.2601 69 102L81 153.5C202.354 140.957 252.965 145.153 339 156.5L344 107Z" fill="#006AE4"/>
<ellipse id="Ellipse 2" cx="309" cy="284.5" rx="45" ry="44.5" fill="#FF6664"/>
<ellipse id="Ellipse 1" cx="110" cy="284.5" rx="45" ry="44.5" fill="#FF6664"/>
<g id="Face">
<path id="Ellipse 3" d="M188 227.5C188 236.06 184.642 243 180.5 243C176.358 243 173 236.06 173 227.5C173 218.94 176.358 212 180.5 212C184.642 212 188 218.94 188 227.5Z" fill="#350E58"/>
<path id="Ellipse 4" d="M244 227.5C244 236.06 240.642 243 236.5 243C232.358 243 229 236.06 229 227.5C229 218.94 232.358 212 236.5 212C240.642 212 244 218.94 244 227.5Z" fill="#350E58"/>
<path id="lefteb" d="M196 192C180.447 185.219 168.134 193.609 165.04 208.512C175.4 198.62 180.275 194.121 196 192Z" fill="#350E58"/>
<path id="righteb" d="M223 194.28C238.553 187.498 250.866 195.888 253.96 210.792C243.6 200.9 238.725 196.4 223 194.28Z" fill="#350E58"/>
</g>
</g>
<g id="Mask group">
<mask id="mask14_1_196" style="mask-type:alpha" maskUnits="userSpaceOnUse" x="158" y="244" width="105" height="60">
<path id="Vector 6" d="M208.001 303.5C174.669 304.42 155.586 266.746 159 248.5C198.5 242 226 243 262.5 252.5C258.835 284.976 238.511 302.658 208.001 303.5Z" fill="#1E1E1E"/>
</mask>
<g mask="url(#mask14_1_196)">
<rect id="Rectangle 2" x="142" y="239" width="133" height="83" fill="#350E58"/>
<ellipse id="Ellipse 5" cx="204.5" cy="295" rx="35.5" ry="34" fill="#FF6664"/>
</g>
</g>
</g>
</g>
<g id="pop2_3">
<mask id="mask15_1_196" style="mask-type:alpha" maskUnits="userSpaceOnUse" x="99" y="317" width="38" height="38">
<path id="Vector 9_10" d="M114.847 321.532C112.31 309.157 89.4759 325.985 104.141 338.114C98.171 346.163 107.91 361.605 119.655 351.504C127.635 363.365 145.607 340.277 131.303 333.037C139.906 323.584 118.833 310.634 114.847 321.532Z" fill="#D9D9D9"/>
</mask>
<g mask="url(#mask15_1_196)">
<g id="Group 4_10">
<rect id="Rectangle 4_10" x="87.2982" y="327.986" width="46.4222" height="47.4479" transform="rotate(-33.9308 87.2982 327.986)" fill="#FFBA43"/>
<path id="Vector 10_10" d="M114.547 324.006C112.319 313.569 93.4214 327.525 105.765 337.864C100.857 344.584 110.067 357.032 119.775 348.637C126.538 358.69 141.324 339.422 129.325 333.2C136.418 325.322 117.775 314.87 114.547 324.006Z" fill="#FFD387"/>
</g>
</g>
</g>
<g id="pop2_4">
<mask id="mask16_1_196" style="mask-type:alpha" maskUnits="userSpaceOnUse" x="332" y="335" width="29" height="30">
<path id="Vector 9_11" d="M340.198 341.823C335.099 335.014 325.787 354.192 338.313 356.269C336.919 363.573 347.346 369.59 351.723 358.819C360.04 363.251 364.561 341.98 353.653 342.834C356.273 333.654 339.552 333.479 340.198 341.823Z" fill="#D9D9D9"/>
</mask>
<g mask="url(#mask16_1_196)">
<g id="Group 4_11">
<rect id="Rectangle 4_11" x="325.012" y="356.269" width="34.8974" height="31.281" transform="rotate(-61.9439 325.012 356.269)" fill="#FFBA43"/>
<path id="Vector 10_11" d="M340.719 343.489C336.363 337.779 328.665 353.669 339.245 355.5C338.129 361.569 347.374 365.906 350.979 356.974C358.029 360.731 361.669 343.059 352.477 343.682C354.613 336.062 340.107 336.537 340.719 343.489Z" fill="#FFD387"/>
</g>
</g>
</g>
<g id="pop3_2">
<mask id="mask17_1_196" style="mask-type:alpha" maskUnits="userSpaceOnUse" x="39" y="249" width="73" height="73">
<path id="Vector 9_12" d="M98.3893 272.008C117.17 260.284 71.624 232.24 62.4879 264.112C44.4721 258.985 26.0386 284.616 51.8861 298.168C38.1086 318.69 90.4313 334.814 91.66 306.501C114.031 315.186 119.664 272.093 98.3893 272.008Z" fill="#D9D9D9"/>
</mask>
<g mask="url(#mask17_1_196)">
<g id="Group 4_12">
<rect id="Rectangle 4_12" x="66.6172" y="229.805" width="87.5501" height="82.0419" transform="rotate(33.8756 66.6172 229.805)" fill="#FFBA43"/>
<path id="Vector 10_12" d="M94.0207 273.001C109.794 262.965 72.0502 239.773 64.1416 266.679C49.1584 262.527 35.3355 285.462 56.7763 296.635C45.0979 314.03 88.6021 327.129 89.882 303.29C108.467 310.397 111.768 272.881 94.0207 273.001Z" fill="#FFD387"/>
</g>
</g>
</g>
<g id="Pop1_4">
<mask id="mask18_1_196" style="mask-type:alpha" maskUnits="userSpaceOnUse" x="2" y="329" width="58" height="46">
<path id="Vector 7_5" d="M22.3252 338.226C6.88752 329.466 -0.33864 348.812 4.91674 353.922C-5.26558 369.984 13.4568 379.839 26.5952 367.793C34.1498 379.474 48.2737 376.554 48.2737 361.588C66.3391 355.018 63.0545 331.656 41.7044 335.671C39.0768 326.911 24.9529 325.816 22.3252 338.226Z" fill="#D9D9D9"/>
</mask>
<g mask="url(#mask18_1_196)">
<g id="Group 3_5">
<rect id="Rectangle 3_5" x="-12.1633" y="317.42" width="84.7431" height="61.3242" fill="#FFBA43"/>
<path id="Vector 8_5" d="M23.4288 340.806C11.3641 333.851 5.71676 349.211 9.8239 353.269C1.86629 366.021 16.498 373.846 26.7659 364.282C32.6699 373.556 43.7079 371.237 43.7079 359.355C57.8262 354.138 55.2593 335.59 38.5739 338.778C36.5204 331.822 25.4824 330.953 23.4288 340.806Z" fill="#FFD387"/>
</g>
</g>
</g>
</g>
</g>
</svg>
