<svg width="505" height="462" viewBox="0 0 505 462" fill="none" xmlns="http://www.w3.org/2000/svg">
<mask id="mask0_10_225" style="mask-type:alpha" maskUnits="userSpaceOnUse" x="402" y="243" width="83" height="69">
<path d="M431.167 257.161C413.363 243.21 390.781 278.093 408.356 280.64C394.281 305.76 431.167 318.84 438.324 302.335C438.324 323.154 478.542 303.979 468.291 292.629C499.128 288.639 479.084 242.139 457.956 253.165C462.29 238.784 425.994 239.263 431.167 257.161Z" fill="#D9D9D9"/>
</mask>
<g mask="url(#mask0_10_225)">
<rect x="384.746" y="223.548" width="117.145" height="95.914" fill="#FFBA43"/>
<path d="M433.947 260.126C417.269 249.247 399.449 273.778 415.14 279.617C394.573 293.433 427.077 319.798 438.56 296.842C441.704 313.566 472.583 301.582 461.98 289.136C491.002 289.136 473.666 245.495 454.883 256.953C459.581 246.454 431.953 244.057 433.947 260.126Z" fill="#FFD387"/>
</g>
<mask id="mask1_10_225" style="mask-type:alpha" maskUnits="userSpaceOnUse" x="320" y="380" width="41" height="42">
<path d="M337.66 385.704C335.603 372.284 309.608 389.923 324.966 403.357C317.956 411.909 327.724 428.807 341.18 418.173C349.23 431.164 370.264 406.654 355.017 398.506C364.993 388.499 342.663 374.03 337.66 385.704Z" fill="#D9D9D9"/>
</mask>
<g mask="url(#mask1_10_225)">
<rect x="307.105" y="392.033" width="51.4161" height="50.7239" transform="rotate(-31.7856 307.105 392.033)" fill="#FFBA43"/>
<path d="M337.188 388.368C335.356 377.047 313.84 391.677 326.759 403.126C320.991 410.267 330.354 423.919 341.478 415.08C348.302 426.091 365.622 405.631 352.841 398.636C361.069 390.295 341.256 378.579 337.188 388.368Z" fill="#FFD387"/>
</g>
<mask id="mask2_10_225" style="mask-type:alpha" maskUnits="userSpaceOnUse" x="113" y="113" width="81" height="78">
<path d="M125.689 150.948C102.867 167.807 131.367 191.307 144.302 179.646C166.568 201.011 190.767 187.941 176.389 166.149C199.867 173.307 198.367 134.807 175.274 139.29C184.867 110.807 135.867 103.307 129.64 128.929C116.867 118.807 103.867 150.948 125.689 150.948Z" fill="#D9D9D9"/>
</mask>
<g mask="url(#mask2_10_225)">
<path d="M75.6275 175.992L113.497 81.8931L214.916 122.708L177.047 216.807L75.6275 175.992Z" fill="#FFBA43"/>
<path d="M129.367 150.307C110.867 165.307 136.367 182.533 144.118 175.71C161.383 193.7 182.367 177.533 170.474 162.807C194.367 169.307 194.367 143.307 170.468 140.568C180.367 116.807 136.114 110.259 133.367 132.307C124.188 125.307 109.188 143.172 129.367 150.307Z" fill="#FFD387"/>
</g>
<mask id="mask3_10_225" style="mask-type:alpha" maskUnits="userSpaceOnUse" x="281" y="131" width="96" height="67">
<path d="M333.349 189.212C351.778 209.291 372.037 188.231 366.82 178.631C389.811 163.504 367.079 140.151 341.719 148.396C336.369 128.965 314.083 124.801 306.658 144.242C276.746 142.599 270.001 174.798 303.491 181.612C303.021 194.473 323.315 203.854 333.349 189.212Z" fill="#D9D9D9"/>
</mask>
<g mask="url(#mask3_10_225)">
<rect x="373.907" y="235.674" width="133.831" height="85.2768" transform="rotate(-159.096 373.907 235.674)" fill="#FFBA43"/>
<path d="M333.001 185.238C347.349 201.072 363.302 184.3 359.256 176.715C377.323 164.633 359.619 146.223 339.725 152.862C335.616 137.487 318.182 134.28 312.286 149.716C288.869 148.538 283.453 174.08 309.651 179.34C309.229 189.533 325.082 196.882 333.001 185.238Z" fill="#FFD387"/>
</g>
<mask id="mask4_10_225" style="mask-type:alpha" maskUnits="userSpaceOnUse" x="165" y="66" width="71" height="70">
<path d="M211.019 78.7209C219.917 59.5138 167.417 61.5138 177.417 91.5138C159.917 97.0138 158.917 127.014 187.417 124.014C187.417 147.514 238.917 132.514 224.417 109.514C247.417 104.514 228.417 67.5138 211.019 78.7209Z" fill="#D9D9D9"/>
</mask>
<g mask="url(#mask4_10_225)">
<rect x="162" y="62.2449" width="86" height="78" fill="#FFBA43"/>
<path d="M208 81.8201C215.369 65.5394 171.889 67.2347 180.171 92.6638C165.678 97.3258 166.962 122.755 190.565 120.212C190.565 140.132 233.217 127.417 221.208 107.921C240.257 103.683 222.409 72.3205 208 81.8201Z" fill="#FFD387"/>
</g>
<mask id="mask5_10_225" style="mask-type:alpha" maskUnits="userSpaceOnUse" x="208" y="65" width="79" height="65">
<path d="M259.569 77.6408C266.5 57.7449 211.577 61.7467 223 86.7449C202.5 82.2449 203 126.245 232.607 115.382C229.5 141.745 295 126.245 274.873 103.3C301 106.245 279.5 60.2449 259.569 77.6408Z" fill="#D9D9D9"/>
</mask>
<g mask="url(#mask5_10_225)">
<rect x="203.573" y="63.9118" width="98.2405" height="64.9952" fill="#FFBA43"/>
<path d="M256.56 79.0569C264.978 65.4906 215.309 66.9033 224.77 88.0927C208.213 91.9774 209.681 113.167 236.643 111.048C236.643 127.646 285.366 117.052 271.648 100.806C293.408 97.2748 273.019 71.1412 256.56 79.0569Z" fill="#FFD387"/>
</g>
<mask id="mask6_10_225" style="mask-type:alpha" maskUnits="userSpaceOnUse" x="257" y="80" width="64" height="59">
<path d="M298.762 90.6408C306.643 74.6361 260.14 76.3026 268.998 101.301C253.497 105.884 252.611 130.882 277.856 128.382C277.856 147.964 323.473 135.465 310.629 116.3C331.002 112.133 314.172 81.3023 298.762 90.6408Z" fill="#D9D9D9"/>
</mask>
<g mask="url(#mask6_10_225)">
<rect x="255.343" y="76.9118" width="76.1759" height="64.9952" fill="#FFBA43"/>
<path d="M296.088 93.2232C302.615 79.657 264.102 81.0696 271.438 102.259C258.6 106.144 259.738 127.333 280.645 125.214C280.645 141.813 318.424 131.218 307.787 114.973C324.66 111.441 308.85 85.3075 296.088 93.2232Z" fill="#FFD387"/>
</g>
<mask id="mask7_10_225" style="mask-type:alpha" maskUnits="userSpaceOnUse" x="211" y="96" width="64" height="59">
<path d="M252.762 106.641C260.643 90.6361 214.14 92.3026 222.998 117.301C207.497 121.884 206.611 146.882 231.856 144.382C231.856 163.964 277.473 151.465 264.629 132.3C285.002 128.133 268.172 97.3023 252.762 106.641Z" fill="#D9D9D9"/>
</mask>
<g mask="url(#mask7_10_225)">
<rect x="209.343" y="92.9118" width="76.1759" height="64.9952" fill="#FFBA43"/>
<path d="M250.088 109.223C256.615 95.657 218.102 97.0696 225.438 118.259C212.6 122.144 213.738 143.333 234.645 141.214C234.645 157.813 272.424 147.218 261.787 130.973C278.66 127.441 262.85 101.308 250.088 109.223Z" fill="#FFD387"/>
</g>
<mask id="mask8_10_225" style="mask-type:alpha" maskUnits="userSpaceOnUse" x="255" y="101" width="64" height="59">
<path d="M296.762 111.641C304.643 95.6361 258.14 97.3026 266.998 122.301C251.497 126.884 250.611 151.882 275.856 149.382C275.856 168.964 321.473 156.465 308.629 137.3C329.002 133.133 312.172 102.302 296.762 111.641Z" fill="#D9D9D9"/>
</mask>
<g mask="url(#mask8_10_225)">
<rect x="253.343" y="97.9118" width="76.1759" height="64.9952" fill="#FFBA43"/>
<path d="M294.088 114.223C300.615 100.657 262.102 102.07 269.438 123.259C256.6 127.144 257.738 148.333 278.645 146.214C278.645 162.813 316.424 152.218 305.787 135.973C322.66 132.441 306.85 106.308 294.088 114.223Z" fill="#FFD387"/>
</g>
<mask id="mask9_10_225" style="mask-type:alpha" maskUnits="userSpaceOnUse" x="127" y="83" width="73" height="74">
<path d="M186.389 106.469C205.17 94.7443 159.624 66.7004 150.488 98.5729C132.472 93.4458 114.039 119.077 139.886 132.629C126.109 153.151 178.431 169.275 179.66 140.961C202.031 149.646 207.665 106.554 186.389 106.469Z" fill="#D9D9D9"/>
</mask>
<g mask="url(#mask9_10_225)">
<rect x="154.617" y="64.2652" width="87.5501" height="82.0419" transform="rotate(33.8756 154.617 64.2652)" fill="#FFBA43"/>
<path d="M182.021 107.462C197.794 97.4258 160.05 74.234 152.142 101.14C137.158 96.9872 123.335 119.923 144.776 131.095C133.098 148.491 176.602 161.59 177.882 137.75C196.467 144.858 199.768 107.342 182.021 107.462Z" fill="#FFD387"/>
</g>
<mask id="mask10_10_225" style="mask-type:alpha" maskUnits="userSpaceOnUse" x="239" y="130" width="64" height="59">
<path d="M280.762 140.641C288.643 124.636 242.14 126.303 250.998 151.301C235.497 155.884 234.611 180.882 259.856 178.382C259.856 197.964 305.473 185.465 292.629 166.3C313.002 162.133 296.172 131.302 280.762 140.641Z" fill="#D9D9D9"/>
</mask>
<g mask="url(#mask10_10_225)">
<rect x="237.343" y="126.912" width="76.1759" height="64.9952" fill="#FFBA43"/>
<path d="M278.088 143.223C284.615 129.657 246.102 131.07 253.438 152.259C240.6 156.144 241.738 177.333 262.645 175.214C262.645 191.813 300.424 181.218 289.787 164.973C306.66 161.441 290.85 135.308 278.088 143.223Z" fill="#FFD387"/>
</g>
<mask id="mask11_10_225" style="mask-type:alpha" maskUnits="userSpaceOnUse" x="303" y="101" width="59" height="59">
<path d="M327.68 108.177C323.936 89.1671 288.235 115.427 310.807 133.868C301.416 146.351 316.29 169.971 334.676 154.239C346.876 172.372 375.128 136.552 353.041 125.631C366.541 110.944 334.037 91.3385 327.68 108.177Z" fill="#D9D9D9"/>
</mask>
<g mask="url(#mask11_10_225)">
<rect x="284.824" y="118.541" width="72.5336" height="72.5413" transform="rotate(-33.9308 284.824 118.541)" fill="#FFBA43"/>
<path d="M327.176 111.99C323.881 95.9577 294.334 117.736 313.331 133.459C305.609 143.88 319.709 162.897 334.906 149.823C345.247 165.194 368.494 135.303 349.969 125.912C361.099 113.674 332.328 97.8761 327.176 111.99Z" fill="#FFD387"/>
</g>
<mask id="mask12_10_225" style="mask-type:alpha" maskUnits="userSpaceOnUse" x="176" y="117" width="89" height="64">
<path d="M206.94 129.883C183.44 117.883 172.44 144.383 180.44 151.383C164.94 173.383 193.44 186.883 213.44 170.383C224.94 186.383 246.44 182.383 246.44 161.883C273.94 152.883 268.94 120.883 236.44 126.383C232.44 114.383 210.94 112.883 206.94 129.883Z" fill="#D9D9D9"/>
</mask>
<g mask="url(#mask12_10_225)">
<rect x="154.44" y="101.383" width="129" height="84" fill="#FFBA43"/>
<path d="M208.62 133.417C190.254 123.889 181.658 144.93 187.91 150.487C175.796 167.955 198.07 178.673 213.7 165.573C222.687 178.276 239.49 175.1 239.49 158.824C260.981 151.678 257.074 126.271 231.674 130.638C228.549 121.11 211.746 119.92 208.62 133.417Z" fill="#FFD387"/>
</g>
<mask id="mask13_10_225" style="mask-type:alpha" maskUnits="userSpaceOnUse" x="114" y="163" width="265" height="270">
<path d="M378 170.745C279.049 161.666 220.655 160.895 115.5 170.745C129.4 292.673 140.213 347.859 161.574 421.637C162.726 425.616 166.236 428.468 170.366 428.787C229.914 433.391 263.866 433.338 322.427 429.031C326.658 428.72 330.237 425.757 331.328 421.657C351.104 347.321 365.569 282.069 378 170.745Z" fill="#D9D9D9" stroke="black"/>
</mask>
<g mask="url(#mask13_10_225)">
<rect x="101" y="196.245" width="293" height="250" fill="#00C4FF"/>
<path d="M290.5 433.745C307.327 350.073 315.628 300.436 324 205.245L352 207.745C341.197 306.613 333.073 356.994 317.5 433.745H290.5Z" fill="#00A3F5"/>
<path d="M249.5 433.745C261.557 351.461 264.748 299.777 267 202.245H294C292.827 295.498 289.207 346.12 278 433.745H249.5Z" fill="#00A3F5"/>
<path d="M213 433.745C208.226 385.022 206.369 377.111 195 202.245H223C229.123 325.745 232.943 370.116 240 433.745H213Z" fill="#00A3F5"/>
<path d="M171.5 433.745C160.157 370.074 153.345 328.869 137 204.245L164.5 199.245C176.553 304.893 184.349 353.835 199 433.745H171.5Z" fill="#00A3F5"/>
<path d="M381 164.245C294.812 157.796 241.425 151.505 106 159.245L118 210.745C239.354 198.202 289.965 202.398 376 213.745L381 164.245Z" fill="#006AE4"/>
<ellipse cx="346" cy="341.745" rx="45" ry="44.5" fill="#FF6664"/>
<ellipse cx="147" cy="341.745" rx="45" ry="44.5" fill="#FF6664"/>
<path d="M233 249.245C217.447 242.464 205.134 250.853 202.04 265.757C212.4 255.865 217.275 251.366 233 249.245Z" fill="#350E58"/>
<path d="M267 234.28C282.553 227.498 294.866 235.888 297.96 250.792C287.6 240.9 282.725 236.4 267 234.28Z" fill="#350E58"/>
<path d="M226.086 281.637C226.086 281.637 220.666 284.974 218.793 282.782C216.89 280.556 218.807 277.273 221.282 275.707C224.417 273.723 227.932 275.49 229.134 279C230.083 281.77 229.627 283.682 227.755 285.935C225.723 288.379 223.752 289.881 220.575 289.77C216.873 289.639 214.335 287.439 213.081 283.953C211.939 280.781 212.654 278.266 214.487 275.437C216.594 272.184 219.231 270.5 223.107 270.519C225.645 270.531 229.239 272.676 229.239 272.676C229.239 272.676 235.42 278.166 235.24 282.737C235.055 287.428 232.16 290.03 228.122 292.424C223.688 295.054 219.779 295.505 214.977 293.63C210.503 291.884 207.954 289.345 206.425 284.792C205.187 281.103 205.457 278.505 206.748 274.835C208.039 271.165 209.456 268.969 212.73 266.868C216.773 264.275 220.174 264.676 224.932 265.33C228.608 265.836 231.152 265.984 233.894 268.483C236.243 270.625 237.729 275.662 237.729 275.662" stroke="#350E58" stroke-width="3"/>
<path d="M280.887 273.507C280.887 273.507 282.036 279.766 279.316 280.72C276.552 281.689 274.185 278.714 273.621 275.84C272.905 272.199 275.824 269.561 279.531 269.711C282.458 269.828 284.075 270.946 285.497 273.506C287.041 276.284 287.728 278.666 286.474 281.587C285.013 284.991 282.044 286.56 278.34 286.469C274.97 286.385 272.884 284.809 270.91 282.077C268.64 278.935 268.024 275.867 269.444 272.261C270.374 269.899 273.674 267.325 273.674 267.325C273.674 267.325 281.028 263.549 285.225 265.371C289.531 267.241 290.908 270.881 291.68 275.512C292.527 280.597 291.533 284.404 288.048 288.203C284.801 291.742 281.512 293.199 276.714 292.977C272.828 292.796 270.503 291.605 267.548 289.073C264.594 286.542 263.06 284.426 262.287 280.613C261.331 275.907 262.936 272.881 265.268 268.682C267.069 265.439 268.127 263.12 271.449 261.468C274.296 260.053 279.53 260.491 279.53 260.491" stroke="#350E58" stroke-width="3"/>
</g>
<mask id="mask14_10_225" style="mask-type:alpha" maskUnits="userSpaceOnUse" x="39" y="272" width="38" height="38">
<path d="M54.8469 276.532C52.3101 264.157 29.4759 280.985 44.1412 293.114C38.171 301.163 47.9096 316.605 59.6553 306.504C67.6348 318.365 85.6069 295.277 71.3031 288.037C79.9064 278.584 58.8334 265.634 54.8469 276.532Z" fill="#D9D9D9"/>
</mask>
<g mask="url(#mask14_10_225)">
<rect x="27.2982" y="282.986" width="46.4222" height="47.4479" transform="rotate(-33.9308 27.2982 282.986)" fill="#FFBA43"/>
<path d="M54.5471 279.006C52.3193 268.569 33.4214 282.525 45.7652 292.864C40.857 299.584 50.0667 312.032 59.7746 303.636C66.5383 313.69 81.3236 294.422 69.3254 288.2C76.4176 280.322 57.7747 269.87 54.5471 279.006Z" fill="#FFD387"/>
</g>
<mask id="mask15_10_225" style="mask-type:alpha" maskUnits="userSpaceOnUse" x="326" y="190" width="29" height="30">
<path d="M334.198 196.952C329.099 190.143 319.787 209.321 332.313 211.398C330.919 218.703 341.346 224.719 345.723 213.948C354.04 218.38 358.561 197.109 347.653 197.963C350.273 188.784 333.552 188.608 334.198 196.952Z" fill="#D9D9D9"/>
</mask>
<g mask="url(#mask15_10_225)">
<rect x="319.012" y="211.398" width="34.8974" height="31.281" transform="rotate(-61.9439 319.012 211.398)" fill="#FFBA43"/>
<path d="M334.719 198.618C330.363 192.908 322.665 208.798 333.245 210.629C332.129 216.698 341.374 221.035 344.979 212.103C352.029 215.86 355.669 198.188 346.477 198.811C348.613 191.191 334.107 191.667 334.719 198.618Z" fill="#FFD387"/>
</g>
<mask id="mask16_10_225" style="mask-type:alpha" maskUnits="userSpaceOnUse" x="35" y="33" width="73" height="73">
<path d="M94.3893 56.0079C113.17 44.2838 67.624 16.2398 58.4879 48.1123C40.4721 42.9852 22.0387 68.616 47.8861 82.1681C34.1086 102.69 86.4313 118.814 87.66 90.5009C110.031 99.1856 115.664 56.0932 94.3893 56.0079Z" fill="#D9D9D9"/>
</mask>
<g mask="url(#mask16_10_225)">
<rect x="62.6172" y="13.8046" width="87.5501" height="82.0419" transform="rotate(33.8756 62.6172 13.8046)" fill="#FFBA43"/>
<path d="M90.0207 57.0013C105.794 46.9652 68.0501 23.7734 60.1416 50.6795C45.1584 46.5266 31.3355 69.462 52.7763 80.6348C41.0979 98.03 84.6021 111.129 85.882 87.2897C104.467 94.3973 107.768 56.8815 90.0207 57.0013Z" fill="#FFD387"/>
</g>
<mask id="mask17_10_225" style="mask-type:alpha" maskUnits="userSpaceOnUse" x="349" y="34" width="58" height="46">
<path d="M369.325 43.2264C353.888 34.4657 346.661 53.8121 351.917 58.9224C341.734 74.9835 360.457 84.8392 373.595 72.7934C381.15 84.4742 395.274 81.554 395.274 66.5879C413.339 60.0175 410.054 36.6559 388.704 40.6712C386.077 31.9106 371.953 30.8155 369.325 43.2264Z" fill="#D9D9D9"/>
</mask>
<g mask="url(#mask17_10_225)">
<rect x="334.837" y="22.4199" width="84.7431" height="61.3242" fill="#FFBA43"/>
<path d="M370.429 45.8065C358.364 38.8508 352.717 54.2112 356.824 58.2687C348.866 71.0207 363.498 78.8458 373.766 69.2818C379.67 78.556 390.708 76.2375 390.708 64.3549C404.826 59.1381 402.259 40.5897 385.574 43.7777C383.52 36.8221 372.482 35.9526 370.429 45.8065Z" fill="#FFD387"/>
</g>
<path d="M210 335.259L225.874 319.091L235.374 330.591L242.374 325.091L248.874 330.591L255.374 325.091L260.874 330.591L270.874 319.091L281.374 335.259" stroke="#350E58" stroke-width="5"/>
</svg>
